# xmcd
#
# Track frame offsets:
#	150
#	18170
#	37473
#	62328
#	86044
#	103908
#	119145
#	138861
#	157685
#	176714
#	199826
#	223868
#	247028
#	268464
#
# Disc length: 3914 seconds
#
# Revision: 0
# Processed by: cddbd v1.5.2PL0 Copyright (c) Steve Scherf et al.
# Submitted via: EasyCDDAExtractor 12.0.7.1
#
DISCID=d60f480e
DTITLE=Various Artist - Live At Manchester Craftsmen's Guild
DYEAR=1999
DGENRE=Blues
TTITLE0=Nicole Yarling - The Best Things In Life Are Free
TTITLE1=Nicole Yarling - The Way You Love Me
TTITLE2=Nicole Yarling - Dig
TTITLE3=Nicole Yarling - We'll All Be Free
TTITLE4=Nicole Yarling - My One And Only Love
TTITLE5=Nicole Yarling - That Old Black Magic
TTITLE6=Nicole Yarling - I Know Why The Caged Bird Sings
TTITLE7=Nicole Yarling - Freedom Jazz Dance
TTITLE8=Nicole Yarling - Conception
TTITLE9=Nicole Yarling - Love For Sale
TTITLE10=Nicole Yarling - Blame It On My Youth
TTITLE11=Nicole Yarling - Who She Do
TTITLE12=Joe Williams - Imagination (Bonus Joe Williams)
TTITLE13=Joe Williams - After You've Gone (Bonus Joe Williams)
EXTD=
EXTT0=
EXTT1=
EXTT2=
EXTT3=
EXTT4=
EXTT5=
EXTT6=
EXTT7=
EXTT8=
EXTT9=
EXTT10=
EXTT11=
EXTT12=
EXTT13=
PLAYORDER=
